<svg width="406" height="627" viewBox="0 0 406 627" fill="none" xmlns="http://www.w3.org/2000/svg">
<path d="M553.455 206.08C524.171 194.007 512.424 181.835 495.55 152.55C464.061 97.8832 476.633 81.7956 448.786 47.2082C440.396 36.7839 409.513 -1.58466 368.865 0.0507504C344.145 1.04857 322.981 14.1155 303.296 34.1539C277.414 60.5002 278.692 65.2935 253.771 83.6259C240.544 93.3676 213.638 113.167 179.82 112.354C154.075 111.735 158.01 107.719 119.548 95.0369C104.965 90.2292 75.8957 89.2035 47.2563 103.995C38.4839 108.524 17.0898 119.581 6.7295 144.788C-0.947037 163.484 1.69443 180.787 3.32976 190.74C9.67166 229.254 18.7951 230.142 17.9016 254.24C17.5912 262.733 17.1119 273.176 5.83589 298.1C-1.18646 313.616 -2.34007 332.33 4.95602 346.013C14.5695 364.045 20.8629 366.774 41.8846 381.293C58.8546 393.013 76.1406 405.354 84.4758 413.718C113.074 442.422 116.064 454.431 122.552 471.364C129.041 488.297 128.732 523.685 145.75 554.254C149.794 561.517 180.503 614.769 237.841 624.603C280.82 631.982 317.313 611.289 334.967 601.28C363.937 584.853 363.766 574.238 400.209 553.329C428.007 537.381 445.096 527.577 469.048 526.568C505.387 525.039 514.4 545.594 550.38 540.407C559.183 539.139 581.597 535.586 598.026 517.257C618.951 493.925 615.773 462.691 615.536 460.645C612.005 430.509 590.533 424.12 592.369 395.347C593.171 382.843 597.979 372.203 601.116 365.278C607.902 350.28 615.798 339.475 623.995 331.616C640.437 315.836 638.439 320.452 649.724 305.717C667.076 283.054 657.803 259.581 652.585 249.676C650.885 246.455 633.767 222.095 613.927 217.663C592.43 212.866 572.802 214.048 553.448 206.073L553.455 206.08Z" fill="white" fill-opacity="0.4"/>
</svg>
