<svg width="278" height="273" viewBox="0 0 278 273" fill="none" xmlns="http://www.w3.org/2000/svg">
<path d="M204.425 19.3203C190.709 24.9895 182.787 24.8225 167.512 20.6518C139.002 12.8624 137.869 3.34256 117.198 1.03683C110.968 0.340937 88.0403 -2.21995 75.0732 11.7768C67.1884 20.2899 64.4692 31.6469 64.5432 44.8364C64.6403 62.178 66.6474 63.3518 64.4184 77.7057C63.2391 85.3281 60.8344 100.828 49.3287 111.749C40.5699 120.062 40.5514 117.423 23.5841 125.927C17.1515 129.151 7.15332 138.429 2.51958 152.834C1.09986 157.246 -2.35926 168.01 2.51958 179.835C6.14055 188.603 12.7305 193.493 16.5595 196.267C31.381 206.998 34.706 204.275 42.3642 212.598C45.0649 215.53 48.3529 219.167 52.834 231.201C55.6226 238.694 61.4171 245.309 68.3584 247.453C77.5057 250.278 80.4977 249.104 92.2763 246.984C101.784 245.272 111.602 243.662 117.133 243.69C136.112 243.788 141.069 246.799 148.815 250.292C156.561 253.785 168.141 265.676 183.887 270.227C187.629 271.308 215.413 278.884 237.712 263.185C254.429 251.419 259.724 232.449 262.286 223.273C266.49 208.214 262.929 204.734 268.136 185.708C272.109 171.197 274.551 162.275 282.176 154.013C293.747 141.477 303.528 145.342 313.771 131.707C316.277 128.371 322.553 119.77 321.961 108.228C321.212 93.5304 309.845 84.1776 309.091 83.5744C297.969 74.7041 288.725 79.6821 279.836 69.4896C275.975 65.059 274.06 59.9234 272.816 56.5784C270.12 49.3365 269.177 43.1245 269.306 37.7939C269.561 27.0957 270.421 29.2948 269.306 20.6518C267.591 7.36019 256.76 2.60955 251.756 1.03683C250.129 0.526509 236.399 -1.92304 228.343 3.16627C219.616 8.68238 213.484 15.5717 204.42 19.3203H204.425Z" fill="#EB8338" fill-opacity="0.2"/>
</svg>
