<svg width="1440" height="370" viewBox="0 0 1440 370" fill="none" xmlns="http://www.w3.org/2000/svg">
<path d="M773.405 310.19H743.861V369.125H773.405V310.19Z" fill="white" fill-opacity="0.8"/>
<path d="M149.366 310.19H119.822V369.125H149.366V310.19Z" fill="white" fill-opacity="0.8"/>
<path d="M461.39 310.19H431.846V369.125H461.39V310.19Z" fill="white" fill-opacity="0.8"/>
<path d="M774.631 279.292L774.648 279.201C745.571 274.559 716.962 266.801 689.611 256.139C658.939 244.183 629.68 228.537 602.653 209.616C588.744 199.882 569.692 186.548 549.142 164.67C527.646 141.79 514.95 120.802 504.743 103.942C493.238 84.9296 483.19 64.9944 475.683 46.3009C471.947 36.9997 468.552 27.4479 465.579 17.9075V7.34184H470.01V0H423.225V7.34184H427.657V17.9075C424.683 27.4479 421.289 36.994 417.552 46.3009C410.045 64.9944 399.998 84.9239 388.487 103.942C378.286 120.802 365.584 141.79 344.094 164.67C323.544 186.548 304.491 199.876 290.582 209.616C263.55 228.531 234.297 244.183 203.625 256.139C176.274 266.795 147.664 274.559 118.587 279.201L118.604 279.292H96.6699V288.166H796.56V279.292H774.631ZM723.164 272.315C732.232 274.946 741.396 277.276 750.624 279.292H723.164V272.315ZM716.683 279.292H697.197V263.851C703.634 266.186 710.132 268.356 716.683 270.372V279.286V279.292ZM690.704 261.436V279.292H671.219V253.433C676.75 255.871 682.326 258.189 687.953 260.382C688.87 260.741 689.787 261.083 690.704 261.436ZM645.246 240.891C651.66 244.263 658.159 247.481 664.732 250.511V279.292H645.246V240.891ZM638.759 279.292H619.274V226.025C625.67 229.995 632.169 233.788 638.759 237.405V279.286V279.292ZM612.786 221.913V279.292H593.301V208.607C595.659 210.282 597.909 211.86 600.039 213.352C604.237 216.285 608.491 219.139 612.786 221.913ZM586.813 279.292H567.328V188.416C574.249 194.396 580.804 199.489 586.813 203.914V279.286V279.292ZM560.841 182.64V279.286H541.355V162.922C542.802 164.534 544.289 166.157 545.827 167.792C550.947 173.242 555.971 178.164 560.846 182.64H560.841ZM534.862 279.292H515.377V129.408C520.868 137.593 527.219 146.319 534.862 155.443V279.286V279.292ZM508.89 119.412V279.286H489.404V86.1997C493.016 92.9492 496.843 99.6816 500.847 106.3C503.348 110.435 506.002 114.815 508.89 119.412ZM471.451 48.0039C474.806 56.3539 478.656 64.9431 482.917 73.5893V279.292H465.579V32.3804C467.43 37.6376 469.389 42.8606 471.457 48.0039H471.451ZM459.473 274.354L450.639 269.256L459.473 264.158V274.359V274.354ZM433.757 33.0354L442.591 38.1332L433.757 43.2309V33.0298V33.0354ZM459.473 49.3937L446.612 56.821L433.751 49.3937V47.8843L446.612 40.457L459.473 47.8843V49.3937ZM433.757 54.0471L442.591 59.1448L433.757 64.2425V54.0414V54.0471ZM459.473 70.4054L446.612 77.8326L433.751 70.4054V68.896L446.612 61.4687L459.473 68.896V70.4054ZM433.757 75.0588L442.591 80.1565L433.757 85.2542V75.0531V75.0588ZM459.473 91.417L446.612 98.8443L433.751 91.417V89.9077L446.612 82.4804L459.473 89.9077V91.417ZM433.757 96.0648L442.591 101.163L433.757 106.26V96.0591V96.0648ZM459.473 112.429L446.612 119.856L433.751 112.429V110.919L446.612 103.492L459.473 110.919V112.429ZM433.757 117.076L442.591 122.174L433.757 127.272V117.071V117.076ZM459.473 133.435L446.612 140.862L433.751 133.435V131.925L446.612 124.498L459.473 131.925V133.435ZM433.757 138.088L442.591 143.186L433.757 148.284V138.082V138.088ZM459.473 154.446L446.612 161.874L433.751 154.446V152.937L446.612 145.51L459.473 152.937V154.446ZM433.757 159.1L442.591 164.198L433.757 169.295V159.094V159.1ZM459.473 175.458L446.612 182.885L433.751 175.458V173.949L446.612 166.521L459.473 173.949V175.458ZM433.757 180.112L442.591 185.209L433.757 190.307V180.106V180.112ZM459.473 196.47L446.612 203.897L433.751 196.47V194.96L446.612 187.533L459.473 194.96V196.47ZM433.757 201.118L442.591 206.215L433.757 211.313V201.112V201.118ZM459.473 217.481L446.612 224.909L433.751 217.481V215.972L446.612 208.545L459.473 215.972V217.481ZM433.757 222.129L442.591 227.227L433.757 232.325V222.123V222.129ZM459.473 238.493L446.612 245.92L433.751 238.493V236.984L446.612 229.556L459.473 236.984V238.493ZM433.757 243.141L442.591 248.239L433.757 253.336V243.135V243.141ZM433.757 264.153L442.591 269.25L433.757 274.348V264.147V264.153ZM433.757 259.499V257.99L446.618 250.562L459.479 257.99V259.499L446.618 266.926L433.757 259.499ZM459.473 253.342L450.639 248.244L459.473 243.147V253.348V253.342ZM459.473 232.33L450.639 227.233L459.473 222.135V232.336V232.33ZM459.473 211.319L450.639 206.221L459.473 201.123V211.324V211.319ZM459.473 190.307L450.639 185.209L459.473 180.112V190.313V190.307ZM459.473 169.301L450.639 164.203L459.473 159.106V169.307V169.301ZM459.473 148.289L450.639 143.192L459.473 138.094V148.295V148.289ZM459.473 127.278L450.639 122.18L459.473 117.082V127.283V127.278ZM459.473 106.266L450.639 101.168L459.473 96.0705V106.272V106.266ZM459.473 85.2542L450.639 80.1565L459.473 75.0588V85.2599V85.2542ZM459.473 64.2425L450.639 59.1448L459.473 54.0471V64.2482V64.2425ZM459.473 43.2366L450.639 38.1389L459.473 33.0411V43.2423V43.2366ZM459.473 22.2249L450.639 17.1272L459.473 12.0295V22.2306V22.2249ZM459.473 26.8726V28.382L446.612 35.8093L433.751 28.382V26.8726L446.612 19.4453L459.473 26.8726ZM433.757 22.2249V12.0238L442.591 17.1215L433.757 22.2192V22.2249ZM433.757 279.001L446.618 271.574L459.479 279.001V279.286H433.757V279.001ZM459.473 7.34184V7.37032L446.612 14.7976L433.751 7.37032V7.34184H459.473ZM421.779 48.0039C423.846 42.8549 425.805 37.6319 427.657 32.3804V279.292H410.319V73.5836C414.573 64.9374 418.429 56.3482 421.784 47.9982L421.779 48.0039ZM392.383 106.3C396.387 99.6816 400.214 92.9492 403.826 86.1997V279.286H384.34V119.412C387.234 114.815 389.882 110.435 392.388 106.3H392.383ZM377.853 279.292H358.368V155.449C366.011 146.324 372.362 137.598 377.853 129.414V279.292ZM347.409 167.792C348.947 166.157 350.428 164.534 351.88 162.922V279.286H332.395V182.64C337.27 178.164 342.294 173.242 347.415 167.792H347.409ZM325.907 279.292H306.422V203.92C312.437 199.489 318.987 194.396 325.907 188.422V279.298V279.292ZM293.191 213.352C295.321 211.86 297.571 210.282 299.929 208.607V279.292H280.444V221.913C284.744 219.133 288.999 216.285 293.191 213.352ZM254.471 237.405C261.067 233.788 267.566 229.989 273.956 226.019V279.286H254.471V237.405ZM247.984 279.292H228.498V250.511C235.077 247.475 241.57 244.263 247.984 240.891V279.292ZM205.277 260.382C210.904 258.189 216.486 255.871 222.011 253.433V279.292H202.526V261.436C203.443 261.088 204.36 260.741 205.277 260.388V260.382ZM196.038 279.292H176.553V270.378C183.103 268.362 189.602 266.186 196.038 263.856V279.298V279.292ZM170.066 272.315V279.292H142.606C151.839 277.276 160.998 274.946 170.066 272.315Z" fill="white" fill-opacity="0.8"/>
<path d="M96.6699 298.458H112.749V308.557H156.447V298.458H424.769V308.557H468.461V298.458H736.783V308.557H780.481V298.458H796.56V293.235H96.6699V298.458Z" fill="white" fill-opacity="0.8"/>
<path d="M848.806 310.19H819.262V369.125H848.806V310.19Z" fill="white" fill-opacity="0.8"/>
<path d="M1160.83 310.19H1131.29V369.125H1160.83V310.19Z" fill="white" fill-opacity="0.8"/>
<path d="M1474.07 279.292L1474.09 279.201C1445.01 274.559 1416.4 266.801 1389.05 256.139C1358.38 244.183 1329.12 228.537 1302.09 209.616C1288.19 199.882 1269.13 186.548 1248.58 164.67C1227.09 141.79 1214.39 120.802 1204.18 103.942C1192.68 84.9296 1182.63 64.9944 1175.12 46.3009C1171.39 36.9997 1167.99 27.4479 1165.02 17.9075V7.34184H1169.45V0H1122.67V7.34184H1127.1V17.9075C1124.12 27.4479 1120.73 36.994 1116.99 46.3009C1109.49 64.9944 1099.44 84.9239 1087.93 103.942C1077.73 120.802 1065.03 141.79 1043.54 164.67C1022.99 186.548 1003.93 199.876 990.024 209.616C962.992 228.531 933.738 244.183 903.066 256.139C875.715 266.795 847.106 274.559 818.029 279.201L818.046 279.292H796.111V288.166H1496V279.292H1474.07ZM1422.61 272.315C1431.67 274.946 1440.84 277.276 1450.07 279.292H1422.61V272.315ZM1416.12 279.292H1396.64V263.851C1403.07 266.186 1409.57 268.356 1416.12 270.372V279.286V279.292ZM1390.15 261.436V279.292H1370.66V253.433C1376.19 255.871 1381.77 258.189 1387.39 260.382C1388.31 260.741 1389.23 261.083 1390.15 261.436ZM1344.69 240.891C1351.1 244.263 1357.6 247.481 1364.17 250.511V279.292H1344.69V240.891ZM1338.2 279.292H1318.71V226.025C1325.11 229.995 1331.61 233.788 1338.2 237.405V279.286V279.292ZM1312.23 221.913V279.292H1292.74V208.607C1295.1 210.282 1297.35 211.86 1299.48 213.352C1303.68 216.285 1307.93 219.139 1312.23 221.913ZM1286.25 279.292H1266.77V188.416C1273.69 194.396 1280.25 199.489 1286.25 203.914V279.286V279.292ZM1260.28 182.64V279.286H1240.8V162.922C1242.24 164.534 1243.73 166.157 1245.27 167.792C1250.39 173.242 1255.41 178.164 1260.29 182.64H1260.28ZM1234.3 279.292H1214.82V129.408C1220.31 137.593 1226.66 146.319 1234.3 155.443V279.286V279.292ZM1208.33 119.412V279.286H1188.85V86.1997C1192.46 92.9492 1196.28 99.6816 1200.29 106.3C1202.79 110.435 1205.44 114.815 1208.33 119.412ZM1170.89 48.0039C1174.25 56.3539 1178.1 64.9431 1182.36 73.5893V279.292H1165.02V32.3804C1166.87 37.6376 1168.83 42.8606 1170.9 48.0039H1170.89ZM1158.91 274.354L1150.08 269.256L1158.91 264.158V274.359V274.354ZM1133.2 33.0354L1142.03 38.1332L1133.2 43.2309V33.0298V33.0354ZM1158.91 49.3937L1146.05 56.821L1133.19 49.3937V47.8843L1146.05 40.457L1158.91 47.8843V49.3937ZM1133.2 54.0471L1142.03 59.1448L1133.2 64.2425V54.0414V54.0471ZM1158.91 70.4054L1146.05 77.8326L1133.19 70.4054V68.896L1146.05 61.4687L1158.91 68.896V70.4054ZM1133.2 75.0588L1142.03 80.1565L1133.2 85.2542V75.0531V75.0588ZM1158.91 91.417L1146.05 98.8443L1133.19 91.417V89.9077L1146.05 82.4804L1158.91 89.9077V91.417ZM1133.2 96.0648L1142.03 101.163L1133.2 106.26V96.0591V96.0648ZM1158.91 112.429L1146.05 119.856L1133.19 112.429V110.919L1146.05 103.492L1158.91 110.919V112.429ZM1133.2 117.076L1142.03 122.174L1133.2 127.272V117.071V117.076ZM1158.91 133.435L1146.05 140.862L1133.19 133.435V131.925L1146.05 124.498L1158.91 131.925V133.435ZM1133.2 138.088L1142.03 143.186L1133.2 148.284V138.082V138.088ZM1158.91 154.446L1146.05 161.874L1133.19 154.446V152.937L1146.05 145.51L1158.91 152.937V154.446ZM1133.2 159.1L1142.03 164.198L1133.2 169.295V159.094V159.1ZM1158.91 175.458L1146.05 182.885L1133.19 175.458V173.949L1146.05 166.521L1158.91 173.949V175.458ZM1133.2 180.112L1142.03 185.209L1133.2 190.307V180.106V180.112ZM1158.91 196.47L1146.05 203.897L1133.19 196.47V194.96L1146.05 187.533L1158.91 194.96V196.47ZM1133.2 201.118L1142.03 206.215L1133.2 211.313V201.112V201.118ZM1158.91 217.481L1146.05 224.909L1133.19 217.481V215.972L1146.05 208.545L1158.91 215.972V217.481ZM1133.2 222.129L1142.03 227.227L1133.2 232.325V222.123V222.129ZM1158.91 238.493L1146.05 245.92L1133.19 238.493V236.984L1146.05 229.556L1158.91 236.984V238.493ZM1133.2 243.141L1142.03 248.239L1133.2 253.336V243.135V243.141ZM1133.2 264.153L1142.03 269.25L1133.2 274.348V264.147V264.153ZM1133.2 259.499V257.99L1146.06 250.562L1158.92 257.99V259.499L1146.06 266.926L1133.2 259.499ZM1158.91 253.342L1150.08 248.244L1158.91 243.147V253.348V253.342ZM1158.91 232.33L1150.08 227.233L1158.91 222.135V232.336V232.33ZM1158.91 211.319L1150.08 206.221L1158.91 201.123V211.324V211.319ZM1158.91 190.307L1150.08 185.209L1158.91 180.112V190.313V190.307ZM1158.91 169.301L1150.08 164.203L1158.91 159.106V169.307V169.301ZM1158.91 148.289L1150.08 143.192L1158.91 138.094V148.295V148.289ZM1158.91 127.278L1150.08 122.18L1158.91 117.082V127.283V127.278ZM1158.91 106.266L1150.08 101.168L1158.91 96.0705V106.272V106.266ZM1158.91 85.2542L1150.08 80.1565L1158.91 75.0588V85.2599V85.2542ZM1158.91 64.2425L1150.08 59.1448L1158.91 54.0471V64.2482V64.2425ZM1158.91 43.2366L1150.08 38.1389L1158.91 33.0411V43.2423V43.2366ZM1158.91 22.2249L1150.08 17.1272L1158.91 12.0295V22.2306V22.2249ZM1158.91 26.8726V28.382L1146.05 35.8093L1133.19 28.382V26.8726L1146.05 19.4453L1158.91 26.8726ZM1133.2 22.2249V12.0238L1142.03 17.1215L1133.2 22.2192V22.2249ZM1133.2 279.001L1146.06 271.574L1158.92 279.001V279.286H1133.2V279.001ZM1158.91 7.34184V7.37032L1146.05 14.7976L1133.19 7.37032V7.34184H1158.91ZM1121.22 48.0039C1123.29 42.8549 1125.25 37.6319 1127.1 32.3804V279.292H1109.76V73.5836C1114.01 64.9374 1117.87 56.3482 1121.23 47.9982L1121.22 48.0039ZM1091.82 106.3C1095.83 99.6816 1099.66 92.9492 1103.27 86.1997V279.286H1083.78V119.412C1086.68 114.815 1089.32 110.435 1091.83 106.3H1091.82ZM1077.29 279.292H1057.81V155.449C1065.45 146.324 1071.8 137.598 1077.29 129.414V279.292ZM1046.85 167.792C1048.39 166.157 1049.87 164.534 1051.32 162.922V279.286H1031.84V182.64C1036.71 178.164 1041.74 173.242 1046.86 167.792H1046.85ZM1025.35 279.292H1005.86V203.92C1011.88 199.489 1018.43 194.396 1025.35 188.422V279.298V279.292ZM992.632 213.352C994.763 211.86 997.012 210.282 999.37 208.607V279.292H979.885V221.913C984.186 219.133 988.44 216.285 992.632 213.352ZM953.913 237.405C960.508 233.788 967.007 229.989 973.398 226.019V279.286H953.913V237.405ZM947.425 279.292H927.94V250.511C934.518 247.475 941.012 244.263 947.425 240.891V279.292ZM904.718 260.382C910.346 258.189 915.927 255.871 921.452 253.433V279.292H901.967V261.436C902.884 261.088 903.801 260.741 904.718 260.388V260.382ZM895.48 279.292H875.994V270.378C882.545 268.362 889.043 266.186 895.48 263.856V279.298V279.292ZM869.507 272.315V279.292H842.048C851.281 277.276 860.439 274.946 869.507 272.315Z" fill="white" fill-opacity="0.8"/>
<path d="M796.111 298.458H812.19V308.557H855.888V298.458H1124.21V308.557H1167.9V298.458H1436.22V308.557H1479.92V298.458H1496V293.235H796.111V298.458Z" fill="white" fill-opacity="0.8"/>
<path d="M652.735 310.19H623.191V369.125H652.735V310.19Z" fill="white" fill-opacity="0.4"/>
<path d="M28.6963 310.19H-0.847656V369.125H28.6963V310.19Z" fill="white" fill-opacity="0.4"/>
<path d="M340.718 310.19H311.174V369.125H340.718V310.19Z" fill="white" fill-opacity="0.4"/>
<path d="M653.961 279.292L653.978 279.201C624.902 274.559 596.292 266.801 568.941 256.139C538.269 244.183 509.01 228.537 481.983 209.616C468.074 199.882 449.022 186.548 428.472 164.67C406.976 141.79 394.28 120.802 384.073 103.942C372.568 84.9296 362.52 64.9944 355.013 46.3009C351.277 36.9997 347.882 27.4479 344.909 17.9075V7.34184H349.34V0H302.555V7.34184H306.987V17.9075C304.013 27.4479 300.619 36.994 296.882 46.3009C289.375 64.9944 279.328 84.9239 267.817 103.942C257.616 120.802 244.914 141.79 223.424 164.67C202.874 186.548 183.821 199.876 169.912 209.616C142.88 228.531 113.627 244.183 82.9551 256.139C55.604 266.795 26.9942 274.559 -2.08269 279.201L-2.06561 279.292H-24V288.166H675.89V279.292H653.961ZM602.494 272.315C611.562 274.946 620.727 277.276 629.954 279.292H602.494V272.315ZM596.013 279.292H576.527V263.851C582.964 266.186 589.463 268.356 596.013 270.372V279.286V279.292ZM570.034 261.436V279.292H550.549V253.433C556.08 255.871 561.656 258.189 567.283 260.382C568.2 260.741 569.117 261.083 570.034 261.436ZM524.576 240.891C530.99 244.263 537.489 247.481 544.062 250.511V279.292H524.576V240.891ZM518.089 279.292H498.604V226.025C505 229.995 511.499 233.788 518.089 237.405V279.286V279.292ZM492.116 221.913V279.292H472.631V208.607C474.989 210.282 477.239 211.86 479.369 213.352C483.567 216.285 487.822 219.139 492.116 221.913ZM466.143 279.292H446.658V188.416C453.579 194.396 460.134 199.489 466.143 203.914V279.286V279.292ZM440.171 182.64V279.286H420.686V162.922C422.132 164.534 423.619 166.157 425.157 167.792C430.277 173.242 435.301 178.164 440.176 182.64H440.171ZM414.192 279.292H394.707V129.408C400.198 137.593 406.549 146.319 414.192 155.443V279.286V279.292ZM388.22 119.412V279.286H368.734V86.1997C372.346 92.9492 376.173 99.6816 380.177 106.3C382.678 110.435 385.332 114.815 388.22 119.412ZM350.781 48.0039C354.136 56.3539 357.987 64.9431 362.247 73.5893V279.292H344.909V32.3804C346.76 37.6376 348.72 42.8606 350.787 48.0039H350.781ZM338.803 274.354L329.969 269.256L338.803 264.158V274.359V274.354ZM313.087 33.0354L321.921 38.1332L313.087 43.2309V33.0298V33.0354ZM338.803 49.3937L325.942 56.821L313.081 49.3937V47.8843L325.942 40.457L338.803 47.8843V49.3937ZM313.087 54.0471L321.921 59.1448L313.087 64.2425V54.0414V54.0471ZM338.803 70.4054L325.942 77.8326L313.081 70.4054V68.896L325.942 61.4687L338.803 68.896V70.4054ZM313.087 75.0588L321.921 80.1565L313.087 85.2542V75.0531V75.0588ZM338.803 91.417L325.942 98.8443L313.081 91.417V89.9077L325.942 82.4804L338.803 89.9077V91.417ZM313.087 96.0648L321.921 101.163L313.087 106.26V96.0591V96.0648ZM338.803 112.429L325.942 119.856L313.081 112.429V110.919L325.942 103.492L338.803 110.919V112.429ZM313.087 117.076L321.921 122.174L313.087 127.272V117.071V117.076ZM338.803 133.435L325.942 140.862L313.081 133.435V131.925L325.942 124.498L338.803 131.925V133.435ZM313.087 138.088L321.921 143.186L313.087 148.284V138.082V138.088ZM338.803 154.446L325.942 161.874L313.081 154.446V152.937L325.942 145.51L338.803 152.937V154.446ZM313.087 159.1L321.921 164.198L313.087 169.295V159.094V159.1ZM338.803 175.458L325.942 182.885L313.081 175.458V173.949L325.942 166.521L338.803 173.949V175.458ZM313.087 180.112L321.921 185.209L313.087 190.307V180.106V180.112ZM338.803 196.47L325.942 203.897L313.081 196.47V194.96L325.942 187.533L338.803 194.96V196.47ZM313.087 201.118L321.921 206.215L313.087 211.313V201.112V201.118ZM338.803 217.481L325.942 224.909L313.081 217.481V215.972L325.942 208.545L338.803 215.972V217.481ZM313.087 222.129L321.921 227.227L313.087 232.325V222.123V222.129ZM338.803 238.493L325.942 245.92L313.081 238.493V236.984L325.942 229.556L338.803 236.984V238.493ZM313.087 243.141L321.921 248.239L313.087 253.336V243.135V243.141ZM313.087 264.153L321.921 269.25L313.087 274.348V264.147V264.153ZM313.087 259.499V257.99L325.948 250.562L338.809 257.99V259.499L325.948 266.926L313.087 259.499ZM338.803 253.342L329.969 248.244L338.803 243.147V253.348V253.342ZM338.803 232.33L329.969 227.233L338.803 222.135V232.336V232.33ZM338.803 211.319L329.969 206.221L338.803 201.123V211.324V211.319ZM338.803 190.307L329.969 185.209L338.803 180.112V190.313V190.307ZM338.803 169.301L329.969 164.203L338.803 159.106V169.307V169.301ZM338.803 148.289L329.969 143.192L338.803 138.094V148.295V148.289ZM338.803 127.278L329.969 122.18L338.803 117.082V127.283V127.278ZM338.803 106.266L329.969 101.168L338.803 96.0705V106.272V106.266ZM338.803 85.2542L329.969 80.1565L338.803 75.0588V85.2599V85.2542ZM338.803 64.2425L329.969 59.1448L338.803 54.0471V64.2482V64.2425ZM338.803 43.2366L329.969 38.1389L338.803 33.0411V43.2423V43.2366ZM338.803 22.2249L329.969 17.1272L338.803 12.0295V22.2306V22.2249ZM338.803 26.8726V28.382L325.942 35.8093L313.081 28.382V26.8726L325.942 19.4453L338.803 26.8726ZM313.087 22.2249V12.0238L321.921 17.1215L313.087 22.2192V22.2249ZM313.087 279.001L325.948 271.574L338.809 279.001V279.286H313.087V279.001ZM338.803 7.34184V7.37032L325.942 14.7976L313.081 7.37032V7.34184H338.803ZM301.109 48.0039C303.176 42.8549 305.136 37.6319 306.987 32.3804V279.292H289.649V73.5836C293.903 64.9374 297.76 56.3482 301.114 47.9982L301.109 48.0039ZM271.713 106.3C275.717 99.6816 279.544 92.9492 283.156 86.1997V279.286H263.67V119.412C266.564 114.815 269.212 110.435 271.718 106.3H271.713ZM257.183 279.292H237.698V155.449C245.341 146.324 251.692 137.598 257.183 129.414V279.292ZM226.739 167.792C228.277 166.157 229.758 164.534 231.21 162.922V279.286H211.725V182.64C216.601 178.164 221.624 173.242 226.745 167.792H226.739ZM205.238 279.292H185.752V203.92C191.767 199.489 198.317 194.396 205.238 188.422V279.298V279.292ZM172.521 213.352C174.651 211.86 176.901 210.282 179.259 208.607V279.292H159.774V221.913C164.074 219.133 168.329 216.285 172.521 213.352ZM133.801 237.405C140.397 233.788 146.896 229.989 153.286 226.019V279.286H133.801V237.405ZM127.314 279.292H107.829V250.511C114.407 247.475 120.9 244.263 127.314 240.891V279.292ZM84.6069 260.382C90.2343 258.189 95.8161 255.871 101.341 253.433V279.292H81.8558V261.436C82.7728 261.088 83.6898 260.741 84.6069 260.388V260.382ZM75.3683 279.292H55.8831V270.378C62.4333 268.362 68.9321 266.186 75.3683 263.856V279.298V279.292ZM49.3956 272.315V279.292H21.9364C31.1692 277.276 40.328 274.946 49.3956 272.315Z" fill="white" fill-opacity="0.4"/>
<path d="M-24 298.458H-7.92085V308.557H35.7771V298.458H304.099V308.557H347.791V298.458H616.113V308.557H659.811V298.458H675.89V293.235H-24V298.458Z" fill="white" fill-opacity="0.4"/>
<path d="M1352.17 310.19H1322.63V369.125H1352.17V310.19Z" fill="white" fill-opacity="0.4"/>
<path d="M728.136 310.19H698.592V369.125H728.136V310.19Z" fill="white" fill-opacity="0.4"/>
<path d="M1040.16 310.19H1010.62V369.125H1040.16V310.19Z" fill="white" fill-opacity="0.4"/>
<path d="M1353.4 279.292L1353.42 279.201C1324.34 274.559 1295.73 266.801 1268.38 256.139C1237.71 244.183 1208.45 228.537 1181.42 209.616C1167.51 199.882 1148.46 186.548 1127.91 164.67C1106.42 141.79 1093.72 120.802 1083.51 103.942C1072.01 84.9296 1061.96 64.9944 1054.45 46.3009C1050.72 36.9997 1047.32 27.4479 1044.35 17.9075V7.34184H1048.78V0H1001.99V7.34184H1006.43V17.9075C1003.45 27.4479 1000.06 36.994 996.322 46.3009C988.815 64.9944 978.767 84.9239 967.256 103.942C957.055 120.802 944.353 141.79 922.863 164.67C902.313 186.548 883.261 199.876 869.352 209.616C842.319 228.531 813.066 244.183 782.394 256.139C755.043 266.795 726.433 274.559 697.357 279.201L697.374 279.292H675.439V288.166H1375.33V279.292H1353.4ZM1301.93 272.315C1311 274.946 1320.17 277.276 1329.39 279.292H1301.93V272.315ZM1295.45 279.292H1275.97V263.851C1282.4 266.186 1288.9 268.356 1295.45 270.372V279.286V279.292ZM1269.47 261.436V279.292H1249.99V253.433C1255.52 255.871 1261.09 258.189 1266.72 260.382C1267.64 260.741 1268.56 261.083 1269.47 261.436ZM1224.02 240.891C1230.43 244.263 1236.93 247.481 1243.5 250.511V279.292H1224.02V240.891ZM1217.53 279.292H1198.04V226.025C1204.44 229.995 1210.94 233.788 1217.53 237.405V279.286V279.292ZM1191.56 221.913V279.292H1172.07V208.607C1174.43 210.282 1176.68 211.86 1178.81 213.352C1183.01 216.285 1187.26 219.139 1191.56 221.913ZM1165.58 279.292H1146.1V188.416C1153.02 194.396 1159.57 199.489 1165.58 203.914V279.286V279.292ZM1139.61 182.64V279.286H1120.12V162.922C1121.57 164.534 1123.06 166.157 1124.6 167.792C1129.72 173.242 1134.74 178.164 1139.62 182.64H1139.61ZM1113.63 279.292H1094.15V129.408C1099.64 137.593 1105.99 146.319 1113.63 155.443V279.286V279.292ZM1087.66 119.412V279.286H1068.17V86.1997C1071.78 92.9492 1075.61 99.6816 1079.62 106.3C1082.12 110.435 1084.77 114.815 1087.66 119.412ZM1050.22 48.0039C1053.58 56.3539 1057.43 64.9431 1061.69 73.5893V279.292H1044.35V32.3804C1046.2 37.6376 1048.16 42.8606 1050.23 48.0039H1050.22ZM1038.24 274.354L1029.41 269.256L1038.24 264.158V274.359V274.354ZM1012.53 33.0354L1021.36 38.1332L1012.53 43.2309V33.0298V33.0354ZM1038.24 49.3937L1025.38 56.821L1012.52 49.3937V47.8843L1025.38 40.457L1038.24 47.8843V49.3937ZM1012.53 54.0471L1021.36 59.1448L1012.53 64.2425V54.0414V54.0471ZM1038.24 70.4054L1025.38 77.8326L1012.52 70.4054V68.896L1025.38 61.4687L1038.24 68.896V70.4054ZM1012.53 75.0588L1021.36 80.1565L1012.53 85.2542V75.0531V75.0588ZM1038.24 91.417L1025.38 98.8443L1012.52 91.417V89.9077L1025.38 82.4804L1038.24 89.9077V91.417ZM1012.53 96.0648L1021.36 101.163L1012.53 106.26V96.0591V96.0648ZM1038.24 112.429L1025.38 119.856L1012.52 112.429V110.919L1025.38 103.492L1038.24 110.919V112.429ZM1012.53 117.076L1021.36 122.174L1012.53 127.272V117.071V117.076ZM1038.24 133.435L1025.38 140.862L1012.52 133.435V131.925L1025.38 124.498L1038.24 131.925V133.435ZM1012.53 138.088L1021.36 143.186L1012.53 148.284V138.082V138.088ZM1038.24 154.446L1025.38 161.874L1012.52 154.446V152.937L1025.38 145.51L1038.24 152.937V154.446ZM1012.53 159.1L1021.36 164.198L1012.53 169.295V159.094V159.1ZM1038.24 175.458L1025.38 182.885L1012.52 175.458V173.949L1025.38 166.521L1038.24 173.949V175.458ZM1012.53 180.112L1021.36 185.209L1012.53 190.307V180.106V180.112ZM1038.24 196.47L1025.38 203.897L1012.52 196.47V194.96L1025.38 187.533L1038.24 194.96V196.47ZM1012.53 201.118L1021.36 206.215L1012.53 211.313V201.112V201.118ZM1038.24 217.481L1025.38 224.909L1012.52 217.481V215.972L1025.38 208.545L1038.24 215.972V217.481ZM1012.53 222.129L1021.36 227.227L1012.53 232.325V222.123V222.129ZM1038.24 238.493L1025.38 245.92L1012.52 238.493V236.984L1025.38 229.556L1038.24 236.984V238.493ZM1012.53 243.141L1021.36 248.239L1012.53 253.336V243.135V243.141ZM1012.53 264.153L1021.36 269.25L1012.53 274.348V264.147V264.153ZM1012.53 259.499V257.99L1025.39 250.562L1038.25 257.99V259.499L1025.39 266.926L1012.53 259.499ZM1038.24 253.342L1029.41 248.244L1038.24 243.147V253.348V253.342ZM1038.24 232.33L1029.41 227.233L1038.24 222.135V232.336V232.33ZM1038.24 211.319L1029.41 206.221L1038.24 201.123V211.324V211.319ZM1038.24 190.307L1029.41 185.209L1038.24 180.112V190.313V190.307ZM1038.24 169.301L1029.41 164.203L1038.24 159.106V169.307V169.301ZM1038.24 148.289L1029.41 143.192L1038.24 138.094V148.295V148.289ZM1038.24 127.278L1029.41 122.18L1038.24 117.082V127.283V127.278ZM1038.24 106.266L1029.41 101.168L1038.24 96.0705V106.272V106.266ZM1038.24 85.2542L1029.41 80.1565L1038.24 75.0588V85.2599V85.2542ZM1038.24 64.2425L1029.41 59.1448L1038.24 54.0471V64.2482V64.2425ZM1038.24 43.2366L1029.41 38.1389L1038.24 33.0411V43.2423V43.2366ZM1038.24 22.2249L1029.41 17.1272L1038.24 12.0295V22.2306V22.2249ZM1038.24 26.8726V28.382L1025.38 35.8093L1012.52 28.382V26.8726L1025.38 19.4453L1038.24 26.8726ZM1012.53 22.2249V12.0238L1021.36 17.1215L1012.53 22.2192V22.2249ZM1012.53 279.001L1025.39 271.574L1038.25 279.001V279.286H1012.53V279.001ZM1038.24 7.34184V7.37032L1025.38 14.7976L1012.52 7.37032V7.34184H1038.24ZM1000.55 48.0039C1002.62 42.8549 1004.57 37.6319 1006.43 32.3804V279.292H989.088V73.5836C993.343 64.9374 997.199 56.3482 1000.55 47.9982L1000.55 48.0039ZM971.152 106.3C975.156 99.6816 978.984 92.9492 982.595 86.1997V279.286H963.11V119.412C966.003 114.815 968.652 110.435 971.158 106.3H971.152ZM956.622 279.292H937.137V155.449C944.781 146.324 951.131 137.598 956.622 129.414V279.292ZM926.178 167.792C927.716 166.157 929.197 164.534 930.649 162.922V279.286H911.164V182.64C916.04 178.164 921.063 173.242 926.184 167.792H926.178ZM904.677 279.292H885.191V203.92C891.206 199.489 897.756 194.396 904.677 188.422V279.298V279.292ZM871.96 213.352C874.09 211.86 876.34 210.282 878.698 208.607V279.292H859.213V221.913C863.513 219.133 867.768 216.285 871.96 213.352ZM833.24 237.405C839.836 233.788 846.335 229.989 852.726 226.019V279.286H833.24V237.405ZM826.753 279.292H807.268V250.511C813.846 247.475 820.34 244.263 826.753 240.891V279.292ZM784.046 260.382C789.673 258.189 795.255 255.871 800.78 253.433V279.292H781.295V261.436C782.212 261.088 783.129 260.741 784.046 260.388V260.382ZM774.808 279.292H755.322V270.378C761.872 268.362 768.371 266.186 774.808 263.856V279.298V279.292ZM748.835 272.315V279.292H721.376C730.608 277.276 739.767 274.946 748.835 272.315Z" fill="white" fill-opacity="0.4"/>
<path d="M675.439 298.458H691.518V308.557H735.216V298.458H1003.54V308.557H1047.23V298.458H1315.55V308.557H1359.25V298.458H1375.33V293.235H675.439V298.458Z" fill="white" fill-opacity="0.4"/>
</svg>
