<svg width="349" height="127" viewBox="0 0 349 127" fill="none" xmlns="http://www.w3.org/2000/svg">
<path d="M92.0923 0.00678423C91.6679 0.141736 91.1987 0.883971 89.568 2.36844C87.8478 3.94288 86.2171 4.66262 84.5416 5.40486C79.627 7.58658 73.573 8.26134 73.4613 8.28383C66.9829 9.00357 62.0906 11.2528 54.4953 14.7165C46.4308 18.3827 41.1587 22.5437 35.8643 26.7272C31.4188 30.236 25.1638 35.2067 18.5737 43.2813C14.6643 48.0721 8.02952 56.3717 3.65102 69.0796C2.53405 72.3185 -0.437072 83.7444 0.0543923 84.8465C0.255446 85.3188 1.03732 84.9814 1.43943 84.8465C6.62215 83.1821 10.4198 76.5694 12.341 73.3756C12.341 73.3756 15.3121 68.4498 20.8076 60.8476C24.5159 55.7194 28.8051 49.8715 35.909 44.3834C42.6778 39.1428 47.9052 37.4109 50.9433 36.6462C54.1378 35.8365 60.7279 35.2967 60.7279 36.3538C60.7279 36.5112 60.9513 37.0286 59.678 38.5355C57.377 41.2795 54.5846 42.3367 51.9263 43.3938C47.2797 45.2381 44.9564 46.1603 43.2586 47.1275C41.2927 48.2296 38.3886 49.9165 35.909 52.9754C32.4687 57.2263 31.3518 64.3113 31.9326 64.0189C32.6028 63.6815 34.4793 62.8044 37.8748 60.6451C42.3204 57.8111 45.0011 57.2713 51.1667 55.0221C58.9185 52.1657 64.4363 50.1414 70.2445 46.4977C74.2432 44.0011 80.1408 40.2224 84.9214 33.0475C88.6074 27.5145 90.2158 22.0264 90.8637 19.8222C91.8689 16.336 92.2264 13.6819 92.4721 11.7251C93.0082 7.58658 93.0306 -0.263119 92.1147 0.00678423H92.0923Z" fill="#EB8338"/>
<path d="M13.8838 126.007C14.3082 125.872 14.7773 125.13 16.4081 123.645C18.1282 122.071 19.759 121.351 21.4345 120.609C26.3491 118.427 32.4031 117.752 32.5147 117.73C38.9931 117.01 43.8855 114.761 51.4808 111.297C59.5453 107.631 64.8174 103.47 70.1118 99.2863C74.5573 95.7776 80.8123 90.8068 87.4024 82.7322C91.3118 77.9414 97.9466 69.6419 102.325 56.9339C103.442 53.6951 106.413 42.2692 105.922 41.1671C105.721 40.6947 104.939 41.0321 104.537 41.1671C99.3539 42.8315 95.5563 49.4441 93.6351 52.638C93.6351 52.638 90.664 57.5637 85.1685 65.166C81.4602 70.2942 77.171 76.1421 70.0671 81.6301C63.2983 86.8708 58.0709 88.6026 55.0328 89.3674C51.8382 90.1771 45.2481 90.7169 45.2481 89.6598C45.2481 89.5023 45.0248 88.985 46.2981 87.478C48.599 84.734 51.3915 83.6769 54.0498 82.6198C58.6964 80.7754 61.0197 79.8533 62.7175 78.8861C64.6833 77.784 67.5875 76.0971 70.0671 73.0382C73.5074 68.7872 74.6243 61.7022 74.0435 61.9946C73.3733 62.332 71.4968 63.2092 68.1013 65.3684C63.6557 68.2024 60.975 68.7422 54.8094 70.9914C47.0576 73.8479 41.5398 75.8722 35.7316 79.5159C31.7329 82.0125 25.8353 85.7911 21.0547 92.9661C17.3687 98.4991 15.7603 103.987 15.1124 106.191C14.1072 109.678 13.7497 112.332 13.504 114.288C12.9679 118.427 12.9455 126.277 13.8614 126.007H13.8838Z" fill="#9BC549"/>
<path d="M178.802 12.2135C177.553 25.2038 172.655 39.5921 160.615 46.2718C153.277 50.33 144.047 51.7475 135.734 51.9417L144.906 46.9125C157.805 38.7572 165.376 27.3009 165.298 11.6504L178.802 12.2329V12.2135Z" fill="black"/>
<path d="M150.37 29.068L138.584 32.6602C137.335 25.6311 133.959 19.3204 131.988 12.5049C140.282 14.8738 146.604 21.5923 150.37 29.068Z" fill="black"/>
<path d="M247.296 14.7964V27.0876C255.394 26.5634 262.965 23.4954 269.268 18.5051L274.03 26.641C265.541 29.8449 256.35 30.8741 247.315 31.3789V42.6605C247.315 43.1653 248.174 45.1653 248.603 45.6702C249.13 46.3109 251.003 47.3789 251.764 47.3789H279.182C278.889 51.7478 277.523 52.8158 273.308 53.1071C266.01 53.6119 255.355 53.5148 248.018 53.1071C240.232 52.6799 234.963 49.4177 234.963 40.9517V14.7964H247.315H247.296Z" fill="black"/>
<path d="M278.011 19.6508L272.703 23.0876C271.649 21.2818 271.045 19.2818 270.03 17.476C269.757 17.01 267.22 13.5537 267.395 13.3789C269.561 13.8449 271.903 14.5828 273.796 15.7284C274.459 16.1168 278.44 19.0488 278.011 19.6702V19.6508Z" fill="black"/>
<path d="M273.99 11.3594C278.205 11.9613 282.069 14.0972 284.899 17.2235L279.591 21.0681C277.854 17.7283 276.605 14.1943 273.99 11.3594Z" fill="black"/>
<path d="M326.601 15.1454C331.012 15.8638 329.782 22.4658 328.904 25.4367C327.811 29.0871 325.762 32.1939 323.596 35.2813C325.957 36.4464 328.553 37.1648 330.972 38.2328C332.299 38.8347 340.554 43.0677 340.808 43.8833C341.022 44.6017 333.802 52.7182 332.924 53.9803C332.338 54.0969 330.641 50.3493 330.153 49.6114C327.538 45.6502 324.045 42.3104 320.298 39.4172C312.317 46.8347 302.111 53.0289 290.871 53.126L300.355 45.5532C307.595 38.8541 314.015 30.757 315.849 20.8347H293.447C293.369 20.6211 293.74 20.4852 293.74 20.4075V15.126H326.621L326.601 15.1454Z" fill="black"/>
<path d="M333.354 10C337.53 10.6408 341.218 12.699 343.969 15.8641L338.661 19.7087L336.554 14.9515L333.354 10Z" fill="black"/>
<path d="M337.041 17.4758V18.2525L331.655 21.7283C330.563 18.1555 328.631 15.0292 326.484 12.0195C330.66 12.5632 333.958 14.8545 337.061 17.4953L337.041 17.4758Z" fill="black"/>
<path d="M228.973 24.835C228.973 27.1456 228.407 30.466 226.26 31.7087C226.007 31.8641 224.348 32.5631 224.25 32.5631H185.203L184.773 32.1359V25.2816L185.203 24.8544H228.992L228.973 24.835Z" fill="black"/>
<path d="M226.061 99.9045C229.079 99.4469 236.878 99.5486 240.042 99.8536C242.167 100.032 242.432 100.591 242.577 102.751C242.77 105.573 242.794 110.453 242.577 113.249C242.432 114.926 242.142 115.765 240.452 115.917C236.999 116.273 229.659 116.248 226.206 115.917C224.564 115.765 224.25 115.104 224.081 113.452C223.815 110.783 223.839 105.013 224.081 102.319C224.226 100.743 224.516 100.133 226.061 99.9045ZM237.482 102.421H229.152V113.325H237.482V102.421Z" fill="black"/>
<path d="M298.235 99.8026L298.042 101.277C300.819 101.582 303.958 101.226 306.687 101.506C307.628 101.607 308.739 101.785 308.98 102.929C309.343 104.581 308.256 108.292 307.508 109.842C304.634 115.866 298.139 116.705 292.344 116.476L299.225 112.715C301.761 110.656 302.847 107.326 303.113 104.073L296.956 103.844C295.483 107.275 292.513 109.614 288.891 109.842C291.426 106.843 291.692 102.751 292.537 99.0146L298.211 99.8026H298.235Z" fill="black"/>
<path d="M215.728 99.6246C215.631 97.1083 218.843 96.0408 220.171 98.0488C221.62 100.26 219.471 102.929 217.153 101.988C216.887 108.292 213.072 113.731 207.228 115.409C206.528 115.612 204.645 116.121 204.041 116.121H200.274L204.983 113.477C207.88 111.444 210.561 107.275 211.357 103.717C211.454 103.234 211.768 102.497 211.357 102.217H198.85V99.6501H215.728V99.6246ZM217.708 98.3792C216.356 98.8113 217.104 101.328 218.601 100.819C220.026 100.336 219.471 97.82 217.708 98.3792Z" fill="black"/>
<path d="M317.384 98.9131V105.75C321.585 105.09 325.787 105.344 329.988 105.954L328.66 110.656C325.063 109.055 321.296 107.936 317.384 107.453V116.451H312.603L312.289 116.121V98.9131H317.36H317.384Z" fill="black"/>
<path d="M284.592 104.276C284.737 105.496 283.843 106.843 282.66 106.843H279.304V113.807L279.618 114.138H285.606C285.872 114.748 285.051 116.502 284.495 116.502H268.752V114.138H274.137L274.451 113.807V106.843H269.887C269.283 106.233 269.694 105.089 269.573 104.276H284.616H284.592Z" fill="black"/>
<path d="M153.14 98.9131V100.413H155.772C156.037 102.472 154.975 103.234 153.116 102.98V104.479H156.158C156.448 106.869 155.071 107.275 153.116 107.047V108.546H155.772C155.917 110.503 154.999 111.418 153.116 111.113V113.121C153.236 113.376 154.081 113.681 154.226 113.681H168.159C168.159 115.231 167.531 116.222 166.01 116.451C162.943 116.883 153.864 116.654 150.798 116.019C149.445 115.739 147.997 115.028 147.127 113.909C146.403 115.256 145.534 116.324 143.988 116.477L144.809 108.14L147.852 108.368L147.659 111.851L148.286 112.206V107.072H144.399C144.495 106.259 144.109 105.115 144.713 104.505H148.262V103.005H144.809C144.906 102.192 144.52 101.048 145.123 100.438H148.262V98.9385H153.14V98.9131Z" fill="black"/>
<path d="M166.444 99.3452C166.758 99.4469 167.289 100.362 167.337 100.743C167.482 101.658 167.627 106.615 166.444 106.615H161.253V109.919C161.253 109.919 162.049 110.656 162.17 110.656H168.158C167.869 111.546 167.941 112.511 166.975 112.944C165.864 113.452 160.069 113.299 158.741 112.944C157.944 112.74 157.027 112.054 156.689 111.266C156.23 110.198 155.989 104.225 157.268 104.225H162.46V101.862H156.351V99.3452H166.42H166.444Z" fill="black"/>
<path d="M265.493 105.013C261.775 112.003 254.241 115.866 246.804 116.553L245.959 111.647C250.885 111.012 255.593 109.944 260.133 107.835C261.944 106.996 263.634 105.827 265.493 105.013Z" fill="black"/>
<path d="M255.327 104.784L253.806 108.622L246.176 104.124C249.267 103.615 252.309 103.92 255.327 104.759V104.784Z" fill="black"/>
<path d="M256.56 99.8789L255.038 103.717L247.408 99.2181C250.451 98.7097 253.59 98.9639 256.56 99.8535V99.8789Z" fill="black"/>
<path d="M262.451 101.353L260.327 102.853C259.506 101.429 259.023 99.8788 257.984 98.5825C259.747 98.9129 261.389 99.8026 262.451 101.353Z" fill="black"/>
<path d="M262.861 101.785L260.809 97.7183C262.451 98.0233 263.972 98.8366 265.058 100.184C265.131 100.489 263.127 101.963 262.837 101.76L262.861 101.785Z" fill="black"/>
<path d="M194.792 99.3449C195.058 101.2 189.528 101.582 189.094 101.277L190.446 99.167L194.792 99.3449Z" fill="black"/>
<path d="M172.024 103.641V101.506H173.448L172.241 98.9385C174.414 99.0656 176.273 99.4469 178.133 100.641L178.036 101.074L174.68 101.506H178.543V98.9131H183.228L183.131 101.48H184.024V98.9131H188.491V101.48H194.697C195.18 101.76 194.697 103.005 194.383 103.285C193.707 103.895 192.645 103.412 191.896 103.666C191.582 103.768 190.665 104.835 190.327 105.115H194.697L194.963 105.42C194.963 105.801 194.407 107.021 194.093 107.021H186.053V107.453H193.466L193.755 107.962C193.755 108.165 193.176 108.953 193.079 108.953H186.077V109.588H195.011C194.842 110.122 194.552 111.52 193.9 111.52H188.105L192.162 112.715L195.615 113.249L192.983 116.349C190.399 115.79 188.153 114.214 186.053 112.613V116.477H181.175V112.613C178.881 116.146 175.211 116.553 171.42 116.451C173.086 114.901 175.887 113.935 176.491 111.52H172.024V109.588H180.861L181.175 108.953H173.255V107.453H181.175V107.021H172.024V105.09H176.298L175.694 103.59H172.024V103.641ZM187.067 103.641H179.34L181.489 105.14H186.173L186.439 105.115L187.091 103.641H187.067Z" fill="black"/>
<g clip-path="url(#clip0_6_142)">
<path d="M143.122 66.2888H138.45C139.022 62.6728 130.174 63.0176 131.03 66.0465C131.313 66.8527 132.207 67.0484 132.986 67.1789C135.836 67.6635 140.195 66.643 142.487 68.7865C144.626 70.7902 143.362 74.3783 140.676 75.3336C138.388 76.149 131.39 76.2469 129.117 75.4361C126.844 74.6253 126.248 72.6728 125.988 70.5526H130.66C129.905 74.9794 139.729 74.0801 138.931 70.9766C136.134 68.5116 130.977 70.7949 127.8 68.4277C125.224 66.5079 126.498 62.8592 129.367 61.9039C133.154 60.6411 143.631 60.3336 143.122 66.2888Z" fill="black"/>
<path d="M203.855 75.571H199.184L198.794 74.5738C196.406 76.0696 189.629 76.3772 189.076 72.9196C188.279 67.9476 194.44 69.1405 197.506 68.805C199.578 68.5813 197.703 67.1414 195.666 67.2719C193.628 67.4024 193.854 68.5394 193.729 68.5394H189.057C189.413 63.6652 200.082 63.9308 202.298 66.6568C203.85 68.572 202.687 73.1619 203.855 75.5617V75.571ZM198.665 71.0557C197.525 71.489 193.114 70.7155 193.762 72.6447C194.195 73.9354 199.294 72.9615 198.665 71.0557Z" fill="black"/>
<path d="M159.146 66.1163C161.592 68.1759 161.511 73.3297 158.54 75.0352C156.575 76.1629 150.529 76.3399 148.592 75.189C145.713 73.4741 145.266 68.7071 147.544 66.4192C150.019 63.9355 156.522 63.9122 159.146 66.1209V66.1163ZM151.528 73.2272C152.297 73.9821 153.984 74.0473 154.912 73.5394C156.868 72.4676 157.075 66.6288 153.191 66.8572C150.144 67.0342 149.966 71.6941 151.528 73.2318V73.2272Z" fill="black"/>
<path d="M178.167 70.0538H173.885C173.102 68.6325 173.251 67.3604 171.218 67.0901C168.325 66.708 167.633 69.653 168.104 71.8758C168.757 74.9652 174.073 74.3688 173.496 71.0556H178.167C178.307 73.6558 176.211 75.2402 173.77 75.7108C171.631 76.1209 167.287 76.1628 165.465 74.9279C162.836 73.1432 162.769 68.5859 165.052 66.5356C168.488 63.4508 178.489 63.968 178.167 70.0538Z" fill="black"/>
<path d="M210.8 61.27H206.388V75.571H210.8V61.27Z" fill="black"/>
<path d="M185.853 65.7856H181.182V75.5713H185.853V65.7856Z" fill="black"/>
<path d="M182.147 61.5777C185.036 60.9533 188.246 62.957 185.319 64.6392C182.046 66.5218 178.735 62.314 182.147 61.5777Z" fill="black"/>
<path d="M237.723 68.3581C239.987 69.1736 240.222 71.8111 238.848 73.5632C238.031 74.6023 235.791 75.2594 234.474 75.3852C233.258 75.5017 225.15 75.5389 224.487 75.2547C223.656 74.9005 223.497 73.3162 223.435 72.5101C223.31 70.977 223.271 62.7197 223.838 61.839C224.011 61.5734 224.718 61.3404 225.054 61.2566C227.02 60.7626 235.032 60.9956 236.863 61.7924C239.708 63.032 240.299 66.1214 237.733 67.99V68.3535L237.723 68.3581ZM228.116 67.1093H233.176C233.244 67.1093 234.248 66.5594 234.339 66.4756C235.224 65.6182 234.296 63.5958 233.436 63.5958H228.116V67.1093ZM228.116 73.1298H232.917C233.056 73.1298 234.296 72.5473 234.484 72.3842C235.623 71.401 235.108 69.3647 233.695 69.3647H228.116V73.1298Z" fill="black"/>
<path d="M273.181 68.363H268.509C268.437 68.363 268.389 67.445 267.88 67.0908C266.842 66.3732 264.732 66.6668 263.612 67.1421C262.372 69.0014 267.87 68.554 268.634 68.6193C271.263 68.8523 273.926 69.9939 273.426 72.9902C273.287 73.829 272.297 74.8075 271.513 75.1523C269.615 75.9818 263.16 76.0237 261.18 75.3201C259.686 74.7889 258.58 73.1906 258.647 71.6202H263.319C262.737 73.9454 268.053 73.7451 268.649 72.6267C269.745 70.5764 265.251 71.2055 264.232 71.1123C262.209 70.9259 259.758 70.7954 259.085 68.5633C257.705 63.9781 266.649 63.9454 269.461 64.5559C271.489 64.9939 273.066 66.2427 273.186 68.3583L273.181 68.363Z" fill="black"/>
<path d="M331.547 68.3628H327.265C327.029 68.3628 326.866 67.3982 326.467 67.1279C325.501 66.4709 321.651 66.3171 322.228 67.962C322.666 69.2062 328.918 67.8223 331.172 70.1102C332.898 71.8623 331.989 74.4579 329.726 75.2593C327.779 75.949 321.767 76.0189 319.806 75.3246C318.148 74.7374 317.36 73.2137 317.014 71.6247H321.685C321.757 71.6247 321.81 72.4448 322.329 72.8875C323.925 74.2435 328.755 73.0133 327.078 71.4383C326.059 70.4784 320.08 72.0208 318.172 69.6349C317.489 68.7822 317.288 67.4262 317.73 66.4243C318.946 63.6843 332.393 62.8176 331.552 68.3675L331.547 68.3628Z" fill="black"/>
<path d="M348.679 68.2744H344.008C343.936 68.2744 343.888 67.3565 343.378 67.0023C342.369 66.3033 340.331 66.5736 339.231 67.0023C338.837 69.2204 342.802 68.4003 344.368 68.554C346.935 68.8103 349.41 70.0172 348.929 72.9017C348.79 73.7404 347.8 74.719 347.016 75.0638C344.998 75.9445 338.611 75.9259 336.534 75.1244C335.126 74.5792 334.103 72.9995 334.146 71.5363H338.817C338.236 73.8616 343.551 73.6612 344.147 72.5429C345.243 70.4925 340.749 71.1216 339.73 71.0284C337.851 70.856 335.549 70.7721 334.747 68.8196C332.68 63.7963 342.629 63.7404 345.57 64.6305C347.276 65.1477 348.689 66.4478 348.684 68.2698L348.679 68.2744Z" fill="black"/>
<path d="M314.779 71.6246C314.894 73.7402 312.549 75.1567 310.636 75.5249C306.43 76.3357 300.091 75.9163 300.034 70.4969C299.971 64.7933 306.82 63.6563 311.352 65.0263C313.327 65.6227 315.937 68.139 314.543 70.208C314.452 70.3431 313.173 70.8744 313.092 70.8744H304.652C304.263 74.0663 310.194 74.9144 310.102 71.6292H314.774L314.779 71.6246ZM304.912 68.6143H309.843C309.324 66.2192 305.686 66.4522 304.912 68.6143Z" fill="black"/>
<path d="M246.446 64.8491V70.7438C246.446 70.9675 246.989 72.2862 247.229 72.4959C248.897 73.9265 251.896 71.9414 251.896 69.9936V64.8491H256.567V75.3897H251.896V73.3859C251.348 73.7587 251.093 74.4996 250.469 74.8911C248.623 76.042 244.043 75.5994 242.755 73.563C242.409 73.0131 241.77 71.0607 241.77 70.5015V64.8538H246.441L246.446 64.8491Z" fill="black"/>
<path d="M297.957 75.39H293.286V68.992C293.286 68.0973 292.243 67.2026 291.315 67.1141C289.407 66.9324 287.836 68.773 287.836 70.4971V75.39H283.424V64.8494H287.836V66.6062C289.407 64.2856 292.781 64.1178 295.242 65.0917C296.655 65.6509 297.957 67.5475 297.957 68.992V75.39Z" fill="black"/>
<path d="M280.713 65.604H276.301V75.3897H280.713V65.604Z" fill="black"/>
<path d="M277.266 61.3962C280.184 60.823 283.005 62.9153 280.169 64.4531C276.901 66.2238 273.383 62.1604 277.266 61.3962Z" fill="black"/>
</g>
<defs>
<clipPath id="clip0_6_142">
<rect width="223" height="15" fill="white" transform="translate(125.988 61)"/>
</clipPath>
</defs>
</svg>
