<svg width="429" height="291" viewBox="0 0 429 291" fill="none" xmlns="http://www.w3.org/2000/svg">
<path d="M41.4118 243.758H18.1953V290.07H41.4118V243.758Z" fill="white"/>
<path d="M286.605 243.758H263.389V290.07H286.605V243.758Z" fill="white"/>
<path d="M532.763 219.476L532.776 219.404C509.926 215.757 487.444 209.66 465.951 201.281C441.848 191.887 418.855 179.591 397.617 164.722C386.687 157.073 371.715 146.595 355.566 129.403C338.674 111.423 328.697 94.9295 320.676 81.6808C311.635 66.7402 303.739 51.0746 297.84 36.3846C294.904 29.0755 292.236 21.5694 289.9 14.0722V5.76944H293.382V0H256.617V5.76944H260.099V14.0722C257.763 21.5694 255.095 29.071 252.159 36.3846C246.26 51.0746 238.364 66.7357 229.319 81.6808C221.302 94.9295 211.321 111.423 194.433 129.403C178.284 146.595 163.312 157.068 152.382 164.722C131.14 179.587 108.151 191.887 84.0486 201.281C62.5553 209.656 40.0728 215.757 17.2233 219.404L17.2367 219.476H0V226.449H549.995V219.476H532.763ZM492.318 213.993C499.444 216.061 506.646 217.892 513.897 219.476H492.318V213.993ZM487.225 219.476H471.913V207.342C476.97 209.177 482.077 210.882 487.225 212.467V219.472V219.476ZM466.81 205.444V219.476H451.498V199.155C455.844 201.071 460.226 202.893 464.648 204.616C465.369 204.898 466.089 205.167 466.81 205.444ZM431.088 189.299C436.128 191.949 441.235 194.478 446.4 196.859V219.476H431.088V189.299ZM425.99 219.476H410.678V177.617C415.704 180.737 420.811 183.718 425.99 186.56V219.472V219.476ZM405.58 174.386V219.476H390.268V163.93C392.121 165.246 393.889 166.486 395.563 167.658C398.861 169.964 402.205 172.206 405.58 174.386ZM385.17 219.476H369.858V148.063C375.296 152.763 380.447 156.764 385.17 160.242V219.472V219.476ZM364.759 143.524V219.472H349.447V128.029C350.584 129.295 351.752 130.571 352.961 131.856C356.985 136.139 360.933 140.006 364.764 143.524H364.759ZM344.345 219.476H329.033V101.693C333.348 108.124 338.338 114.982 344.345 122.152V219.472V219.476ZM323.935 93.8373V219.472H308.623V67.7383C311.46 73.0423 314.468 78.3328 317.615 83.5338C319.58 86.7833 321.665 90.2253 323.935 93.8373ZM294.515 37.7229C297.151 44.2846 300.177 51.0343 303.525 57.8287V219.476H289.9V25.4455C291.355 29.5768 292.894 33.6812 294.519 37.7229H294.515ZM285.102 215.595L278.16 211.589L285.102 207.584V215.6V215.595ZM264.893 25.9603L271.835 29.9662L264.893 33.9721V25.9558V25.9603ZM285.102 38.8151L274.995 44.6516L264.889 38.8151V37.6289L274.995 31.7924L285.102 37.6289V38.8151ZM264.893 42.4719L271.835 46.4778L264.893 50.4837V42.4674V42.4719ZM285.102 55.3267L274.995 61.1632L264.889 55.3267V54.1405L274.995 48.304L285.102 54.1405V55.3267ZM264.893 58.9835L271.835 62.9894L264.893 66.9953V58.979V58.9835ZM285.102 71.8383L274.995 77.6749L264.889 71.8383V70.6522L274.995 64.8156L285.102 70.6522V71.8383ZM264.893 75.4906L271.835 79.4966L264.893 83.5025V75.4861V75.4906ZM285.102 88.3499L274.995 94.1865L264.889 88.3499V87.1638L274.995 81.3272L285.102 87.1638V88.3499ZM264.893 92.0022L271.835 96.0082L264.893 100.014V91.9978V92.0022ZM285.102 104.857L274.995 110.694L264.889 104.857V103.671L274.995 97.8343L285.102 103.671V104.857ZM264.893 108.514L271.835 112.52L264.893 116.526V108.509V108.514ZM285.102 121.369L274.995 127.205L264.889 121.369V120.183L274.995 114.346L285.102 120.183V121.369ZM264.893 125.025L271.835 129.031L264.893 133.037V125.021V125.025ZM285.102 137.88L274.995 143.717L264.889 137.88V136.694L274.995 130.858L285.102 136.694V137.88ZM264.893 141.537L271.835 145.543L264.893 149.549V141.533V141.537ZM285.102 154.392L274.995 160.228L264.889 154.392V153.206L274.995 147.369L285.102 153.206V154.392ZM264.893 158.044L271.835 162.05L264.893 166.056V158.04V158.044ZM285.102 170.903L274.995 176.74L264.889 170.903V169.717L274.995 163.881L285.102 169.717V170.903ZM264.893 174.556L271.835 178.562L264.893 182.568V174.551V174.556ZM285.102 187.415L274.995 193.252L264.889 187.415V186.229L274.995 180.392L285.102 186.229V187.415ZM264.893 191.067L271.835 195.073L264.893 199.079V191.063V191.067ZM264.893 207.579L271.835 211.585L264.893 215.591V207.575V207.579ZM264.893 203.922V202.736L275 196.9L285.106 202.736V203.922L275 209.759L264.893 203.922ZM285.102 199.084L278.16 195.078L285.102 191.072V199.088V199.084ZM285.102 182.572L278.16 178.566L285.102 174.56V182.577V182.572ZM285.102 166.061L278.16 162.055L285.102 158.049V166.065V166.061ZM285.102 149.549L278.16 145.543L285.102 141.537V149.553V149.549ZM285.102 133.042L278.16 129.036L285.102 125.03V133.046V133.042ZM285.102 116.53L278.16 112.524L285.102 108.518V116.535V116.53ZM285.102 100.019L278.16 96.0126L285.102 92.0067V100.023V100.019ZM285.102 83.507L278.16 79.501L285.102 75.4951V83.5114V83.507ZM285.102 66.9953L278.16 62.9894L285.102 58.9835V66.9998V66.9953ZM285.102 50.4837L278.16 46.4778L285.102 42.4719V50.4882V50.4837ZM285.102 33.9766L278.16 29.9707L285.102 25.9647V33.9811V33.9766ZM285.102 17.465L278.16 13.459L285.102 9.45311V17.4695V17.465ZM285.102 21.1173V22.3034L274.995 28.14L264.889 22.3034V21.1173L274.995 15.2807L285.102 21.1173ZM264.893 17.465V9.44864L271.835 13.4546L264.893 17.4605V17.465ZM264.893 219.248L275 213.411L285.106 219.248V219.472H264.893V219.248ZM285.102 5.76944V5.79182L274.995 11.6284L264.889 5.79182V5.76944H285.102ZM255.48 37.7229C257.105 33.6767 258.645 29.5723 260.099 25.4455V219.476H246.475V57.8242C249.818 51.0298 252.848 44.2801 255.485 37.7185L255.48 37.7229ZM232.38 83.5338C235.527 78.3328 238.534 73.0423 241.372 67.7383V219.472H226.06V93.8373C228.334 90.2253 230.415 86.7833 232.385 83.5338H232.38ZM220.962 219.476H205.65V122.156C211.657 114.986 216.647 108.129 220.962 101.697V219.476ZM197.038 131.856C198.247 130.571 199.411 129.295 200.552 128.029V219.472H185.24V143.524C189.071 140.006 193.019 136.139 197.043 131.856H197.038ZM180.142 219.476H164.83V160.246C169.556 156.764 174.704 152.763 180.142 148.067V219.48V219.476ZM154.432 167.658C156.106 166.486 157.874 165.246 159.727 163.93V219.476H144.415V174.386C147.794 172.201 151.138 169.964 154.432 167.658ZM124.005 186.56C129.188 183.718 134.295 180.733 139.317 177.613V219.472H124.005V186.56ZM118.907 219.476H103.595V196.859C108.765 194.474 113.867 191.949 118.907 189.299V219.476ZM85.3466 204.616C89.7688 202.893 94.1552 201.071 98.4968 199.155V219.476H83.1847V205.444C83.9053 205.171 84.6259 204.898 85.3466 204.62V204.616ZM78.0867 219.476H62.7746V212.471C67.9219 210.887 73.0289 209.177 78.0867 207.346V219.48V219.476ZM57.6765 213.993V219.476H36.0982C43.3536 217.892 50.5509 216.061 57.6765 213.993Z" fill="white"/>
<path d="M0 234.538H12.6355V242.473H46.9746V234.538H257.83V242.473H292.165V234.538H503.02V242.473H537.359V234.538H549.995V230.433H0V234.538Z" fill="white"/>
</svg>
