<svg width="475" height="145" viewBox="0 0 475 145" fill="none" xmlns="http://www.w3.org/2000/svg">
<path d="M63 143H0V25.8444H63V143ZM57.6983 14.1712H40.6869V25.8459H57.6983V14.1712ZM18.5886 22.1589H8.11398V25.8444H18.5886V22.1589ZM13.8392 0H12.8648V22.1589H13.8392V0ZM47.7746 34.7196H3.90075V38.5396H47.7746V34.7196ZM47.7746 59.9177H3.90075V63.7378H47.7746V59.9177ZM47.7746 51.5188H3.90075V55.3389H47.7746V51.5188ZM47.7746 43.1184H3.90075V46.9385H47.7746V43.1184ZM47.7746 68.3166H3.90075V72.1367H47.7746V68.3166ZM47.7746 85.1144H3.90075V88.9345H47.7746V85.1144ZM47.7746 101.912H3.90075V105.732H47.7746V101.912ZM47.7746 93.5133H3.90075V97.3334H47.7746V93.5133ZM47.7746 76.7155H3.90075V80.5356H47.7746V76.7155ZM57.6983 34.7196H51.9834V38.5396H57.6983V34.7196ZM57.6983 59.9177H51.9834V63.7378H57.6983V59.9177ZM57.6983 51.5188H51.9834V55.3389H57.6983V51.5188ZM57.6983 43.1184H51.9834V46.9385H57.6983V43.1184ZM57.6983 68.3166H51.9834V72.1367H57.6983V68.3166ZM57.6983 85.1144H51.9834V88.9345H57.6983V85.1144ZM57.6983 101.912H51.9834V105.732H57.6983V101.912ZM57.6983 93.5133H51.9834V97.3334H57.6983V93.5133ZM57.6983 76.7155H51.9834V80.5356H57.6983V76.7155Z" fill="white"/>
<path d="M154 143H97V105.531H154V143ZM146.662 98H133.209V105.531H146.662V98ZM106.892 111.135H100.132V113.898H106.892V111.135ZM114.616 111.135H107.856V113.898H114.616V111.135ZM106.892 119.58H100.132V122.342H106.892V119.58ZM114.616 119.58H107.856V122.342H114.616V119.58ZM106.892 128.025H100.132V130.788H106.892V128.025ZM114.616 128.025H107.856V130.788H114.616V128.025ZM125.018 111.135H118.258V113.898H125.018V111.135ZM132.742 111.135H125.982V113.898H132.742V111.135ZM125.018 119.58H118.258V122.342H125.018V119.58ZM132.742 119.58H125.982V122.342H132.742V119.58ZM125.018 128.025H118.258V130.788H125.018V128.025ZM132.742 128.025H125.982V130.788H132.742V128.025ZM143.144 111.135H136.384V113.898H143.144V111.135ZM150.868 111.135H144.108V113.898H150.868V111.135ZM143.144 119.58H136.384V122.342H143.144V119.58ZM150.868 119.58H144.108V122.342H150.868V119.58ZM143.144 128.025H136.384V130.788H143.144V128.025ZM150.868 128.025H144.108V130.788H150.868V128.025Z" fill="white"/>
<path d="M475 143H418V105.531H475V143ZM467.662 98H454.209V105.531H467.662V98ZM427.892 111.135H421.132V113.898H427.892V111.135ZM435.616 111.135H428.856V113.898H435.616V111.135ZM427.892 119.58H421.132V122.342H427.892V119.58ZM435.616 119.58H428.856V122.342H435.616V119.58ZM427.892 128.025H421.132V130.788H427.892V128.025ZM435.616 128.025H428.856V130.788H435.616V128.025ZM446.018 111.135H439.258V113.898H446.018V111.135ZM453.742 111.135H446.982V113.898H453.742V111.135ZM446.018 119.58H439.258V122.342H446.018V119.58ZM453.742 119.58H446.982V122.342H453.742V119.58ZM446.018 128.025H439.258V130.788H446.018V128.025ZM453.742 128.025H446.982V130.788H453.742V128.025ZM464.144 111.135H457.384V113.898H464.144V111.135ZM471.868 111.135H465.108V113.898H471.868V111.135ZM464.144 119.58H457.384V122.342H464.144V119.58ZM471.868 119.58H465.108V122.342H471.868V119.58ZM464.144 128.025H457.384V130.788H464.144V128.025ZM471.868 128.025H465.108V130.788H471.868V128.025Z" fill="white"/>
<path d="M221 143H176V51H221V143ZM185.945 60.0754H181.253V63.8785H185.945V60.0754ZM185.945 85.1595H181.253V88.9626H185.945V85.1595ZM185.945 76.7982H181.253V80.6012H185.945V76.7982ZM185.945 68.4368H181.253V72.2398H185.945V68.4368ZM185.945 93.5209H181.253V97.3239H185.945V93.5209ZM185.945 110.244H181.253V114.047H185.945V110.244ZM185.945 126.966H181.253V130.769H185.945V126.966ZM185.945 118.605H181.253V122.408H185.945V118.605ZM185.945 101.882H181.253V105.685H185.945V101.882ZM193.395 60.0754H188.702V63.8785H193.395V60.0754ZM193.395 85.1595H188.702V88.9626H193.395V85.1595ZM193.395 76.7982H188.702V80.6012H193.395V76.7982ZM193.395 68.4368H188.702V72.2398H193.395V68.4368ZM193.395 93.5209H188.702V97.3239H193.395V93.5209ZM193.395 110.244H188.702V114.047H193.395V110.244ZM193.395 126.966H188.702V130.769H193.395V126.966ZM193.395 118.605H188.702V122.408H193.395V118.605ZM193.395 101.882H188.702V105.685H193.395V101.882ZM200.846 60.0754H196.153V63.8785H200.846V60.0754ZM200.846 85.1595H196.153V88.9626H200.846V85.1595ZM200.846 76.7982H196.153V80.6012H200.846V76.7982ZM200.846 68.4368H196.153V72.2398H200.846V68.4368ZM200.846 93.5209H196.153V97.3239H200.846V93.5209ZM200.846 110.244H196.153V114.047H200.846V110.244ZM200.846 126.966H196.153V130.769H200.846V126.966ZM200.846 118.605H196.153V122.408H200.846V118.605ZM200.846 101.882H196.153V105.685H200.846V101.882ZM215.747 60.0754H206.992V63.8785H215.747V60.0754ZM215.747 85.1595H206.992V88.9626H215.747V85.1595ZM215.747 76.7982H206.992V80.6012H215.747V76.7982ZM215.747 68.4368H206.992V72.2398H215.747V68.4368ZM215.747 93.5209H206.992V97.3239H215.747V93.5209ZM215.747 110.244H206.992V114.047H215.747V110.244ZM215.747 126.966H206.992V130.769H215.747V126.966ZM215.747 118.605H206.992V122.408H215.747V118.605ZM215.747 101.882H206.992V105.685H215.747V101.882Z" fill="white"/>
<path d="M409 144H364V52H409V144ZM373.945 61.0754H369.253V64.8785H373.945V61.0754ZM373.945 86.1595H369.253V89.9626H373.945V86.1595ZM373.945 77.7982H369.253V81.6012H373.945V77.7982ZM373.945 69.4368H369.253V73.2398H373.945V69.4368ZM373.945 94.5209H369.253V98.3239H373.945V94.5209ZM373.945 111.244H369.253V115.047H373.945V111.244ZM373.945 127.966H369.253V131.769H373.945V127.966ZM373.945 119.605H369.253V123.408H373.945V119.605ZM373.945 102.882H369.253V106.685H373.945V102.882ZM381.395 61.0754H376.702V64.8785H381.395V61.0754ZM381.395 86.1595H376.702V89.9626H381.395V86.1595ZM381.395 77.7982H376.702V81.6012H381.395V77.7982ZM381.395 69.4368H376.702V73.2398H381.395V69.4368ZM381.395 94.5209H376.702V98.3239H381.395V94.5209ZM381.395 111.244H376.702V115.047H381.395V111.244ZM381.395 127.966H376.702V131.769H381.395V127.966ZM381.395 119.605H376.702V123.408H381.395V119.605ZM381.395 102.882H376.702V106.685H381.395V102.882ZM388.846 61.0754H384.153V64.8785H388.846V61.0754ZM388.846 86.1595H384.153V89.9626H388.846V86.1595ZM388.846 77.7982H384.153V81.6012H388.846V77.7982ZM388.846 69.4368H384.153V73.2398H388.846V69.4368ZM388.846 94.5209H384.153V98.3239H388.846V94.5209ZM388.846 111.244H384.153V115.047H388.846V111.244ZM388.846 127.966H384.153V131.769H388.846V127.966ZM388.846 119.605H384.153V123.408H388.846V119.605ZM388.846 102.882H384.153V106.685H388.846V102.882ZM403.747 61.0754H394.992V64.8785H403.747V61.0754ZM403.747 86.1595H394.992V89.9626H403.747V86.1595ZM403.747 77.7982H394.992V81.6012H403.747V77.7982ZM403.747 69.4368H394.992V73.2398H403.747V69.4368ZM403.747 94.5209H394.992V98.3239H403.747V94.5209ZM403.747 111.244H394.992V115.047H403.747V111.244ZM403.747 127.966H394.992V131.769H403.747V127.966ZM403.747 119.605H394.992V123.408H403.747V119.605ZM403.747 102.882H394.992V106.685H403.747V102.882Z" fill="white"/>
<path d="M275 144H227V87H275V144ZM240.098 93.2818H231.483V97.1069H240.098V93.2818ZM270.543 110.102H261.929V113.927H270.543V110.102ZM240.098 101.692H231.483V105.517H240.098V101.692ZM240.098 126.921H231.483V130.746H240.098V126.921ZM254.339 126.921H245.725V130.746H254.339V126.921ZM254.339 120.425H245.725V124.25H254.339V120.425Z" fill="white"/>
<path d="M306 145H284V116H306V145ZM292.123 127.624H287.85V131.516H292.123V127.624ZM292.123 121.012H287.85V124.904H292.123V121.012ZM302.858 121.012H294.416V124.904H302.858V121.012Z" fill="white"/>
</svg>
