<svg viewBox="0 0 182 48" fill="none" xmlns="http://www.w3.org/2000/svg">
<path d="M34.7518 0.00258447C34.5917 0.0539947 34.4146 0.336751 33.7992 0.902263C33.1501 1.50205 32.5348 1.77624 31.9025 2.05899C30.0479 2.89013 27.7634 3.14718 27.7213 3.15574C25.2766 3.42993 23.4304 4.28677 20.5643 5.6063C17.5211 7.00294 15.5316 8.58809 13.5337 10.1818C11.8561 11.5185 9.49576 13.4121 7.00893 16.4881C5.5337 18.3132 3.03001 21.4749 1.37774 26.316C0.956247 27.5499 -0.164933 31.9026 0.0205254 32.3225C0.0963947 32.5024 0.391442 32.3739 0.543181 32.3225C2.49892 31.6884 3.93201 29.1693 4.65699 27.9526C4.65699 27.9526 5.77817 26.0761 7.85193 23.18C9.2513 21.2264 10.8698 18.9987 13.5506 16.908C16.1048 14.9115 18.0774 14.2518 19.2239 13.9605C20.4294 13.652 22.9162 13.4464 22.9162 13.8491C22.9162 13.909 23.0005 14.1061 22.52 14.6802C21.6517 15.7255 20.598 16.1283 19.5948 16.531C17.8414 17.2336 16.9647 17.5849 16.324 17.9533C15.5822 18.3732 14.4863 19.0158 13.5506 20.1811C12.2523 21.8005 11.8309 24.4995 12.05 24.3882C12.3029 24.2596 13.011 23.9255 14.2924 23.1029C15.9699 22.0233 16.9815 21.8177 19.3082 20.9608C22.2334 19.8726 24.3156 19.1015 26.5074 17.7134C28.0163 16.7623 30.2418 15.3228 32.0458 12.5895C33.4368 10.4817 34.0437 8.39102 34.2882 7.55132C34.6675 6.22322 34.8024 5.21215 34.8951 4.4667C35.0975 2.89013 35.1059 -0.100236 34.7603 0.00258447H34.7518Z" fill="#EB8338"/>
<path d="M5.23724 48.0027C5.39741 47.9513 5.57444 47.6685 6.18982 47.103C6.83893 46.5032 7.45431 46.229 8.08656 45.9463C9.94114 45.1151 12.2257 44.8581 12.2678 44.8495C14.7125 44.5753 16.5586 43.7185 19.4248 42.399C22.468 41.0023 24.4575 39.4172 26.4554 37.8234C28.1329 36.4868 30.4933 34.5932 32.9801 31.5171C34.4554 29.6921 36.9591 26.5303 38.6113 21.6892C39.0328 20.4554 40.154 16.1026 39.9685 15.6828C39.8927 15.5028 39.5976 15.6314 39.4459 15.6828C37.4901 16.3168 36.0571 18.8359 35.3321 20.0526C35.3321 20.0526 34.2109 21.9291 32.1371 24.8252C30.7378 26.7788 29.1192 29.0066 26.4385 31.0973C23.8842 33.0937 21.9116 33.7535 20.7652 34.0448C19.5597 34.3533 17.0729 34.5589 17.0729 34.1562C17.0729 34.0962 16.9886 33.8991 17.4691 33.325C18.3373 32.2797 19.3911 31.877 20.3942 31.4743C22.1477 30.7717 23.0244 30.4204 23.6651 30.0519C24.4069 29.6321 25.5028 28.9895 26.4385 27.8242C27.7367 26.2047 28.1582 23.5057 27.939 23.6171C27.6861 23.7456 26.978 24.0798 25.6967 24.9023C24.0191 25.982 23.0075 26.1876 20.6809 27.0444C17.7557 28.1326 15.6735 28.9038 13.4817 30.2918C11.9728 31.2429 9.74725 32.6824 7.94325 35.4157C6.55231 37.5236 5.94535 39.6142 5.70089 40.4539C5.32154 41.782 5.18666 42.7931 5.09393 43.5385C4.89161 45.1151 4.88318 48.1055 5.22881 48.0027H5.23724Z" fill="#9BC549"/>
<path d="M83.0381 12.2604C82.2899 19.6412 79.3557 27.8164 72.143 31.6117C67.7476 33.9175 62.2182 34.7229 57.2383 34.8332L62.7326 31.9757C70.4597 27.342 74.9954 20.8328 74.9486 11.9404L83.0381 12.2714V12.2604Z" fill="black"/>
<path d="M66.0061 21.8367L58.9454 23.8778C58.1972 19.884 56.1748 16.2983 54.9941 12.4259C59.9624 13.7719 63.7499 17.5892 66.0061 21.8367Z" fill="black"/>
<path d="M124.07 13.7277V20.7114C128.921 20.4135 133.457 18.6704 137.233 15.835L140.085 20.4576C135 22.278 129.494 22.8628 124.081 23.1496V29.5596C124.081 29.8464 124.596 30.9828 124.853 31.2697C125.169 31.6337 126.291 32.2405 126.747 32.2405H143.171C142.996 34.7229 142.177 35.3297 139.652 35.4952C135.28 35.782 128.898 35.7268 124.502 35.4952C119.838 35.2524 116.682 33.399 116.682 28.5887V13.7277H124.081H124.07Z" fill="black"/>
<path d="M142.47 16.4859L139.29 18.4387C138.659 17.4126 138.297 16.2763 137.689 15.2502C137.525 14.9855 136.005 13.0216 136.111 12.9223C137.408 13.1871 138.811 13.6064 139.945 14.2573C140.342 14.478 142.727 16.1439 142.47 16.4969V16.4859Z" fill="black"/>
<path d="M140.062 11.7749C142.588 12.117 144.902 13.3306 146.597 15.1068L143.418 17.2913C142.377 15.3937 141.629 13.3857 140.062 11.7749Z" fill="black"/>
<path d="M171.578 13.9263C174.22 14.3345 173.484 18.0856 172.958 19.7736C172.303 21.8478 171.076 23.613 169.778 25.3672C171.193 26.0291 172.747 26.4373 174.197 27.0441C174.992 27.3862 179.937 29.7913 180.089 30.2546C180.217 30.6629 175.892 35.2745 175.366 35.9916C175.015 36.0578 173.998 33.9285 173.706 33.5093C172.139 31.2586 170.047 29.361 167.802 27.7171C163.021 31.9316 156.907 35.451 150.174 35.5062L155.855 31.2035C160.192 27.3972 164.038 22.7966 165.137 17.1589H151.717C151.67 17.0375 151.892 16.9603 151.892 16.9162V13.9153H171.59L171.578 13.9263Z" fill="black"/>
<path d="M175.623 11.0027C178.125 11.3667 180.334 12.5362 181.982 14.3345L178.803 16.519L177.54 13.816L175.623 11.0027Z" fill="black"/>
<path d="M177.833 15.2502V15.6915L174.606 17.6664C173.951 15.6364 172.794 13.8601 171.508 12.1501C174.01 12.459 175.985 13.7608 177.844 15.2613L177.833 15.2502Z" fill="black"/>
<path d="M113.093 19.4316C113.093 20.7445 112.754 22.6311 111.468 23.3372C111.316 23.4254 110.323 23.8226 110.264 23.8226H86.8724L86.6152 23.5799V19.6854L86.8724 19.4427H113.105L113.093 19.4316Z" fill="black"/>
</svg>
