<svg width="463" height="523" viewBox="0 0 463 523" fill="none" xmlns="http://www.w3.org/2000/svg">
<path d="M237.343 37.0128C211.018 47.8736 195.814 47.5537 166.498 39.5636C111.78 24.6411 109.606 6.40351 69.9322 1.98631C57.9768 0.653151 13.9717 -4.25288 -10.9154 22.5614C-26.0483 38.8704 -31.2671 60.6275 -31.1251 85.8953C-30.9387 119.118 -27.0867 121.366 -31.3648 148.865C-33.628 163.467 -38.2433 193.161 -60.3257 214.083C-77.1361 230.01 -77.1716 224.953 -109.736 241.244C-122.082 247.421 -141.271 265.196 -150.164 292.793C-152.889 301.245 -159.528 321.864 -150.164 344.519C-143.215 361.317 -130.567 370.685 -123.218 376C-94.7718 396.557 -88.3903 391.34 -73.6924 407.284C-68.509 412.901 -62.1985 419.869 -53.5981 442.924C-48.2461 457.278 -37.125 469.952 -23.8028 474.058C-6.24689 479.471 -0.504379 477.222 22.1017 473.16C40.3499 469.881 59.1927 466.797 69.8079 466.85C106.233 467.037 115.748 472.805 130.614 479.497C145.481 486.19 167.706 508.969 197.927 517.688C205.107 519.759 258.432 534.272 301.23 504.196C333.315 481.657 343.477 445.315 348.394 427.735C356.462 398.886 349.628 392.22 359.622 355.771C367.246 327.97 371.932 310.879 386.568 295.05C408.775 271.036 427.547 278.439 447.206 252.318C452.017 245.928 464.061 229.45 462.925 207.337C461.487 179.181 439.671 161.263 438.224 160.108C416.878 143.115 399.136 152.651 382.077 133.125C374.666 124.637 370.992 114.798 368.604 108.39C363.43 94.5164 361.619 82.6158 361.868 72.4038C362.356 51.9087 364.007 56.1215 361.868 39.5636C358.575 14.1003 337.788 4.99925 328.185 1.98631C325.061 1.00866 298.709 -3.68406 283.248 6.06578C266.499 16.6333 254.73 29.8316 237.334 37.0128H237.343Z" fill="#EB8338" fill-opacity="0.2"/>
</svg>
